<svg width="15" height="11" viewBox="0 0 15 11" fill="none" xmlns="http://www.w3.org/2000/svg">
<path d="M1.20225 2.26013C2.19604 1.38695 3.69983 0.944336 5.67112 0.944336H6.37945V2.56267L5.80995 2.6551C4.83954 2.8124 4.1645 3.12183 3.80325 3.57593C3.61475 3.82056 3.50785 4.10067 3.493 4.38883H5.67112C5.85898 4.38883 6.03915 4.44932 6.17199 4.55698C6.30483 4.66464 6.37945 4.81066 6.37945 4.96291V8.98149C6.37945 9.61471 5.74408 10.1297 4.96279 10.1297H0.712787C0.524926 10.1297 0.344758 10.0692 0.21192 9.96152C0.0790816 9.85385 0.00445388 9.70783 0.00445388 9.55558V6.68516L0.0065789 5.00942C0.000203895 4.94569 -0.134379 3.43585 1.20225 2.26013ZM12.7545 10.1297H8.50445C8.31659 10.1297 8.13643 10.0692 8.00359 9.96152C7.87075 9.85385 7.79612 9.70783 7.79612 9.55558V6.68516L7.79825 5.00942C7.79187 4.94569 7.65729 3.43585 8.99391 2.26013C9.9877 1.38695 11.4915 0.944336 13.4628 0.944336H14.1711V2.56267L13.6016 2.6551C12.6312 2.8124 11.9562 3.12183 11.5949 3.57593C11.4064 3.82056 11.2995 4.10067 11.2847 4.38883H13.4628C13.6507 4.38883 13.8308 4.44932 13.9637 4.55698C14.0965 4.66464 14.1711 4.81066 14.1711 4.96291V8.98149C14.1711 9.61471 13.5357 10.1297 12.7545 10.1297Z" fill="white"/>
</svg>
