<svg width="38" height="38" viewBox="0 0 38 38" fill="none" xmlns="http://www.w3.org/2000/svg">
<path d="M33.242 10.925C33.2156 10.6589 33.1222 10.4039 32.9705 10.1837C32.8187 9.96355 32.6136 9.78551 32.3743 9.66624L19.7076 3.33291C19.4876 3.22284 19.2451 3.16553 18.9991 3.16553C18.7531 3.16553 18.5105 3.22284 18.2905 3.33291L5.62387 9.66624C5.38522 9.78619 5.18071 9.96445 5.02931 10.1845C4.87791 10.4045 4.78452 10.6592 4.75779 10.925C4.74037 11.0944 3.2362 27.9727 18.357 34.6972C18.5591 34.7883 18.7782 34.8355 18.9999 34.8355C19.2215 34.8355 19.4407 34.7883 19.6427 34.6972C34.7635 27.9727 33.2594 11.096 33.242 10.925ZM18.9999 31.5036C8.28229 26.3229 7.77562 15.2665 7.8627 12.0887L18.9999 6.52016L30.1291 12.0856C30.1877 15.2348 29.6098 26.3641 18.9999 31.5036Z" fill="white"/>
<path d="M17.4163 19.9279L13.7857 16.2973L11.5469 18.5361L17.4163 24.4055L26.4524 15.3694L24.2135 13.1306L17.4163 19.9279Z" fill="white"/>
</svg>
