<svg width="187" height="200" viewBox="0 0 187 200" fill="none" xmlns="http://www.w3.org/2000/svg">
<path d="M30.0533 96.0631L30.0969 97.6435C30.1977 101.297 29.946 103.889 26.8022 103.976C24.8479 104.03 23.4648 101.976 23.3903 99.2739C23.3777 98.8151 23.3981 98.3213 23.4694 97.8262L18.2014 97.9714L18.1579 96.391L30.0533 96.0631ZM29.6891 97.6547L23.8773 97.8149C23.8182 98.1397 23.7936 98.4805 23.8025 98.8034C23.855 100.707 24.9748 102.461 27.1329 102.402C29.9709 102.324 29.7584 100.17 29.6891 97.6547Z" fill="black"/>
<path d="M20.2594 115.255L23.1258 114.064C23.175 114.051 23.3023 114.263 23.2246 114.301C21.0591 115.48 20.2959 117.163 20.6085 118.329C20.9783 119.708 22.0579 120.387 23.0595 120.118C25.5225 119.458 22.8795 114.13 26.147 113.254C27.9368 112.774 28.9078 114.098 29.2203 115.263C29.4713 116.199 29.4751 117.395 29.4753 118.381L26.6658 119.521C26.6166 119.534 26.5309 119.346 26.5637 119.337C28.9155 118.196 29.313 116.594 28.9872 115.379C28.7319 114.426 28.0412 113.819 27.056 114.084C24.6751 114.722 27.236 120.072 24.149 120.9C22.195 121.424 20.7804 119.955 20.3754 118.444C20.1245 117.508 20.1343 115.904 20.2594 115.255Z" fill="black"/>
<path d="M33.8463 146.253C32.0066 143.98 32.3288 140.46 35.0375 138.268C37.9444 135.914 41.5894 136.31 43.75 138.979C45.0442 140.578 45.087 142.928 44.0431 143.773C43.6203 144.115 43.1126 144.001 42.8024 143.618C42.4815 143.221 42.4815 142.762 42.9572 142.377C43.8821 141.628 44.4301 140.441 43.3926 139.159C42.0342 137.481 39.199 137.086 36.3714 139.375C34.4158 140.958 33.4298 144.009 35.1733 146.163C36.382 147.656 38.3331 147.607 40.0974 147.382C40.2194 147.371 40.1892 147.658 40.1389 147.677C37.5881 148.254 35.4187 148.195 33.8463 146.253Z" fill="black"/>
<path d="M47.0503 159.669C45.8901 158.836 45.4089 157.466 46.1819 156.388C46.955 155.311 48.2126 154.958 50.9829 156.025C51.5417 156.238 52.1597 156.514 52.8467 156.839L53.3522 156.135C54.3234 154.781 53.9644 153.561 53.0667 152.917C52.086 152.213 50.9647 152.581 50.2313 153.603C49.9736 153.962 49.5409 153.923 49.2508 153.715C48.947 153.497 48.772 153.099 49.0395 152.727C49.9315 151.483 52.6947 152.211 53.6892 152.924C54.9737 153.846 55.9945 155.164 54.5475 157.181L51.6733 161.186C51.3958 161.573 51.3219 161.939 51.6396 162.167C51.8744 162.335 52.1906 162.332 52.6671 162.193C52.7581 162.153 52.8248 162.41 52.7575 162.446C52.0416 162.685 51.1563 162.636 50.5762 162.22C49.6646 161.566 50.0954 160.703 50.3729 160.316L51.0964 159.308L51.0687 159.288C50.0711 160.037 48.3762 160.62 47.0503 159.669ZM48.1004 159.313C49.0534 159.997 50.2576 159.689 51.4493 158.787L52.698 157.047C52.0071 156.697 51.4069 156.455 50.9033 156.282C48.7567 155.599 48.0554 156.373 47.659 156.925C47.0643 157.754 47.3407 158.768 48.1004 159.313Z" fill="black"/>
<path d="M61.5891 167.944L62.3756 164.941C62.3949 164.894 62.641 164.921 62.6246 165.006C62.2526 167.444 63.1307 169.07 64.2479 169.527C65.5698 170.067 66.7633 169.618 67.1557 168.658C68.1205 166.298 62.2792 165.177 63.5592 162.046C64.2603 160.331 65.9017 160.359 67.0189 160.816C67.9159 161.182 68.8702 161.903 69.6549 162.499L68.8626 165.426C68.8433 165.473 68.6416 165.427 68.6545 165.396C69.1694 162.833 68.1341 161.547 66.9696 161.071C66.057 160.698 65.1559 160.88 64.7699 161.825C63.8373 164.106 69.6464 165.305 68.4372 168.264C67.6718 170.136 65.6464 170.374 64.1987 169.782C63.3017 169.415 62.0305 168.437 61.5891 167.944Z" fill="black"/>
<path d="M79.5873 174.494C78.4515 174.278 77.6227 173.447 77.939 171.776L79.1091 165.596L77.7562 165.34L77.9052 164.918C79.3083 165.184 80.4791 163.935 81.077 162.422C81.1294 162.328 81.3402 162.403 81.3276 162.469L80.7741 165.392L83.0959 165.832L82.7671 166.289L80.6625 165.89L79.5082 171.987C79.29 173.14 79.6524 173.693 80.2871 173.813C80.7882 173.908 81.2596 173.703 81.9229 173.033C81.9856 172.975 82.1576 173.163 82.1115 173.224C81.2013 174.194 80.4559 174.658 79.5873 174.494Z" fill="black"/>
<path d="M92.8131 163.072L92.6852 174.359C92.6798 174.835 92.829 175.177 93.2199 175.181C93.5089 175.184 93.766 175 94.0764 174.613C94.1284 174.528 94.3305 174.701 94.2957 174.768C93.8468 175.375 93.0764 175.843 92.3625 175.834C91.2406 175.822 91.0984 174.868 91.1037 174.392L91.2078 165.213C91.2191 164.21 91.125 163.512 90.1215 163.551C90.0365 163.55 90.039 163.329 90.1072 163.313C90.8227 163.185 91.827 163.078 92.5595 162.95C92.7299 162.918 92.8147 162.936 92.8131 163.072Z" fill="black"/>
<path d="M102.171 171.1C101.626 168.383 103.228 165.998 105.912 165.46C108.045 165.032 109.456 166.275 109.697 167.475C109.864 168.308 109.434 169.106 108.251 169.343L103.617 170.272L103.681 170.589C104.015 172.256 105.463 174.115 107.813 173.644C109.28 173.35 109.973 172.136 110.446 170.862C110.479 170.769 110.659 170.889 110.652 170.942C110.137 172.866 109.334 174.31 107.467 174.684C104.917 175.196 102.679 173.633 102.171 171.1ZM103.567 170.022L107.417 169.25C108.251 169.083 108.574 168.186 108.403 167.336C108.206 166.352 107.362 165.429 105.895 165.724C104.345 166.034 103.439 168.002 103.567 170.022Z" fill="black"/>
<path d="M126.369 155.297L127.659 154.383C130.641 152.269 132.937 151.039 134.755 153.605C135.885 155.2 134.946 157.491 132.74 159.054C132.366 159.319 131.944 159.576 131.493 159.792L134.54 164.092L133.25 165.006L126.369 155.297ZM127.895 154.716L131.257 159.459C131.56 159.328 131.857 159.159 132.12 158.972C133.674 157.872 134.511 155.966 133.263 154.204C131.621 151.888 129.948 153.261 127.895 154.716Z" fill="black"/>
<path d="M147.766 152.777L145.184 151.056C145.145 151.022 145.251 150.798 145.326 150.841C147.51 151.987 149.333 151.687 150.129 150.779C151.07 149.706 151.035 148.431 150.255 147.747C148.338 146.066 145.375 151.224 142.832 148.993C141.439 147.771 142 146.229 142.796 145.321C143.435 144.593 144.427 143.925 145.246 143.378L147.755 145.08C147.794 145.114 147.685 145.29 147.659 145.267C145.404 143.946 143.851 144.505 143.021 145.451C142.371 146.192 142.25 147.104 143.017 147.776C144.87 149.402 147.897 144.3 150.3 146.407C151.821 147.741 151.385 149.733 150.354 150.909C149.715 151.638 148.376 152.521 147.766 152.777Z" fill="black"/>
<path d="M165.996 124.261C165.128 127.053 162.022 128.74 158.694 127.706C155.123 126.596 153.427 123.345 154.446 120.066C155.057 118.102 156.987 116.761 158.269 117.16C158.789 117.321 158.976 117.807 158.83 118.277C158.678 118.764 158.296 119.02 157.712 118.838C156.576 118.485 155.284 118.688 154.794 120.263C154.154 122.325 155.4 124.902 158.874 125.982C161.277 126.729 164.361 125.854 165.184 123.208C165.754 121.373 164.63 119.778 163.463 118.436C163.385 118.34 163.641 118.206 163.684 118.238C165.581 120.038 166.737 121.875 165.996 124.261Z" fill="black"/>
<path d="M169.818 105.829C169.77 107.256 168.898 108.417 167.573 108.373C166.247 108.329 165.255 107.479 164.604 104.582C164.47 104 164.357 103.332 164.246 102.58L163.379 102.551C161.714 102.495 160.899 103.472 160.862 104.576C160.822 105.782 161.75 106.511 163.007 106.553C163.449 106.568 163.657 106.949 163.645 107.306C163.633 107.68 163.399 108.046 162.941 108.031C161.411 107.979 160.481 105.278 160.522 104.054C160.575 102.474 161.104 100.893 163.585 100.976L168.512 101.141C168.988 101.157 169.333 101.016 169.346 100.625C169.356 100.336 169.177 100.075 168.797 99.7561C168.714 99.7022 168.89 99.5041 168.957 99.5403C169.554 100.003 170.005 100.766 169.981 101.48C169.943 102.601 168.987 102.722 168.511 102.706L167.271 102.665L167.27 102.699C168.446 103.112 169.873 104.198 169.818 105.829ZM168.939 105.153C168.979 103.981 168.054 103.15 166.641 102.661L164.501 102.589C164.594 103.357 164.726 103.991 164.862 104.506C165.487 106.67 166.519 106.824 167.199 106.847C168.218 106.881 168.908 106.087 168.939 105.153Z" fill="black"/>
<path d="M168.623 89.1427L165.689 90.1565C165.639 90.1667 165.525 89.9471 165.605 89.9134C167.839 88.8687 168.703 87.2354 168.462 86.0526C168.177 84.6534 167.141 83.9102 166.125 84.1171C163.626 84.626 165.939 90.1056 162.624 90.7807C160.809 91.1505 159.92 89.77 159.679 88.5873C159.486 87.6378 159.555 86.444 159.615 85.4602L162.489 84.4933C162.539 84.4831 162.613 84.6762 162.58 84.683C160.163 85.6784 159.668 87.2537 159.919 88.4864C160.116 89.4526 160.768 90.1004 161.768 89.8969C164.183 89.405 161.953 83.9084 165.085 83.2706C167.067 82.8669 168.39 84.4192 168.702 85.9518C168.895 86.9013 168.788 88.502 168.623 89.1427Z" fill="black"/>
<path d="M164.071 70.5398C164.523 71.6037 164.292 72.7548 162.727 73.4196L156.938 75.8796L157.477 77.1469L157.043 77.2572C156.485 75.9429 154.796 75.6631 153.206 76.0065C153.099 76.0151 153.043 75.7984 153.106 75.7718L155.844 74.6083L154.92 72.4335L155.482 72.4531L156.32 74.4245L162.031 71.9978C163.11 71.5391 163.369 70.9305 163.116 70.3359C162.917 69.8665 162.485 69.5884 161.559 69.4092C161.476 69.3889 161.537 69.1413 161.613 69.146C162.925 69.3643 163.725 69.7262 164.071 70.5398Z" fill="black"/>
<path d="M147.228 65.8853L156.684 59.7219C157.083 59.462 157.284 59.1481 157.071 58.8206C156.913 58.5784 156.617 58.4669 156.123 58.4241C156.023 58.4277 156.055 58.164 156.13 58.1554C156.884 58.1915 157.701 58.5725 158.09 59.1707C158.703 60.1106 157.989 60.7586 157.59 61.0185L149.9 66.031C149.059 66.5786 148.531 67.0446 149.121 67.8571C149.168 67.9283 148.983 68.049 148.931 68.0013C148.427 67.4774 147.78 66.7021 147.267 66.1639C147.146 66.04 147.114 65.9596 147.228 65.8853Z" fill="black"/>
<path d="M148.702 53.6438C146.746 55.6061 143.873 55.5983 141.935 53.6658C140.394 52.1295 140.643 50.2659 141.508 49.3991C142.108 48.7971 143.009 48.7117 143.864 49.5639L147.211 52.9007L147.439 52.672C148.639 51.4681 149.381 49.2312 147.684 47.5387C146.624 46.4825 145.23 46.5807 143.908 46.8952C143.812 46.9194 143.812 46.703 143.86 46.6789C145.746 46.039 147.393 45.9043 148.741 47.2487C150.583 49.0851 150.527 51.8139 148.702 53.6438ZM147.031 53.0813L144.25 50.3086C143.648 49.7085 142.722 49.9382 142.11 50.5522C141.402 51.2625 141.103 52.477 142.163 53.5333C143.282 54.6496 145.422 54.3098 147.031 53.0813Z" fill="black"/>
<path d="M122.119 42.3035L120.643 41.7386C117.229 40.4327 114.931 39.2078 116.055 36.2704C116.753 34.4444 119.18 33.953 121.705 34.9188C122.133 35.0828 122.582 35.2907 123.012 35.5462L124.895 30.6241L126.371 31.189L122.119 42.3035ZM120.789 41.3575L122.866 35.9273C122.589 35.7484 122.283 35.5951 121.981 35.4797C120.203 34.7995 118.153 35.162 117.382 37.1785C116.368 39.8301 118.439 40.4586 120.789 41.3575Z" fill="black"/>
<path d="M108.14 25.9076L108.143 29.0115C108.136 29.0621 107.891 29.0984 107.885 29.0119C107.625 26.5599 106.363 25.2105 105.166 25.0529C103.75 24.8664 102.71 25.6038 102.575 26.6319C102.242 29.1601 108.176 28.7587 107.734 32.1127C107.492 33.9498 105.897 34.3399 104.701 34.1823C103.74 34.0557 102.634 33.6014 101.723 33.2242L101.746 30.1921C101.752 30.1416 101.959 30.1345 101.955 30.1682C102.108 32.7776 103.436 33.7585 104.684 33.9228C105.661 34.0516 106.486 33.6459 106.619 32.6346C106.941 30.1907 101.018 30.5078 101.436 27.3392C101.7 25.3335 103.598 24.5891 105.149 24.7934C106.11 24.9199 107.588 25.5433 108.14 25.9076Z" fill="black"/>
<path d="M74.3051 26.5922C77.109 25.7629 80.2371 27.4082 81.2256 30.7501C82.2863 34.3365 80.525 37.5521 77.232 38.5261C75.2595 39.1095 73.0728 38.2494 72.6919 36.9616C72.5376 36.4399 72.8372 36.0144 73.3099 35.8746C73.799 35.73 74.2233 35.9058 74.3969 36.4927C74.7344 37.6338 75.6214 38.5947 77.2027 38.127C79.273 37.5147 80.7236 35.0469 79.6918 31.5583C78.9782 29.1456 76.5373 27.0665 73.8801 27.8525C72.038 28.3973 71.3356 30.2183 70.8681 31.9344C70.8318 32.0515 70.5784 31.9137 70.5802 31.86C71.0233 29.2824 71.9087 27.301 74.3051 26.5922Z" fill="black"/>
<path d="M56.8541 33.6494C58.0674 32.8964 59.5178 32.9767 60.217 34.1033C60.9163 35.23 60.7608 36.5269 58.7142 38.6775C58.3037 39.1123 57.8121 39.5774 57.2483 40.0874L57.7055 40.8241C58.584 42.2396 59.8486 42.3752 60.7875 41.7925C61.813 41.156 61.9032 39.9796 61.2398 38.9107C61.0068 38.5351 61.208 38.1501 61.5113 37.9619C61.8291 37.7647 62.2634 37.7552 62.5055 38.1452C63.3123 39.4452 61.5824 41.7193 60.5424 42.3647C59.1991 43.1984 57.5903 43.6367 56.2815 41.5278L53.6818 37.3389C53.4308 36.9345 53.1215 36.7263 52.7893 36.9325C52.5437 37.0849 52.4257 37.3782 52.3718 37.8718C52.3733 37.9709 52.1104 37.9341 52.1034 37.8583C52.1562 37.1053 52.5408 36.3064 53.1474 35.9299C54.1007 35.3382 54.7327 36.0664 54.9838 36.4709L55.6382 37.5253L55.6671 37.5074C55.3573 36.2991 55.4675 34.51 56.8541 33.6494ZM56.7804 34.7556C55.7837 35.3742 55.6068 36.6044 55.9843 38.0508L57.1138 39.8708C57.7011 39.3662 58.1548 38.9046 58.5075 38.5056C59.9599 36.7839 59.5142 35.84 59.1556 35.2623C58.6177 34.3956 57.5748 34.2626 56.7804 34.7556Z" fill="black"/>
<path d="M43.6435 43.9124L46.1162 45.7887C46.1524 45.8246 46.0331 46.0415 45.9608 45.9938C43.8515 44.7169 42.0131 44.9054 41.1634 45.7626C40.1582 46.7768 40.1157 48.0513 40.8523 48.7813C42.6634 50.5764 45.935 45.6092 48.3378 47.9907C49.6539 49.2952 48.9994 50.8007 48.1497 51.6579C47.4676 52.3462 46.4365 52.9518 45.5852 53.4484L43.1848 51.5958C43.1486 51.5599 43.268 51.3911 43.2922 51.415C45.4624 52.872 47.0471 52.4081 47.9327 51.5146C48.6268 50.8143 48.8031 49.912 48.0787 49.194C46.3279 47.4587 42.9959 52.366 40.7259 50.1161C39.2891 48.692 39.8454 46.7302 40.9464 45.6193C41.6285 44.9311 43.0194 44.1316 43.6435 43.9124Z" fill="black"/>
<path d="M30.6998 58.0315C31.3334 57.0645 32.419 56.6174 33.841 57.5491L39.1021 60.9965L39.8568 59.8447L40.1892 60.1438C39.4066 61.3383 40.1121 62.8981 41.281 64.0298C41.3477 64.1142 41.1981 64.2804 41.1413 64.2431L38.6529 62.6126L37.3578 64.5891L37.0617 64.1105L38.2356 62.3189L33.0456 58.9181C32.0644 58.2752 31.4147 58.3983 31.0607 58.9386C30.7811 59.3652 30.7899 59.8791 31.1552 60.7485C31.1841 60.8284 30.9443 60.9152 30.9061 60.8494C30.3589 59.6373 30.2153 58.7709 30.6998 58.0315Z" fill="black"/>
<path d="M36.1884 74.6258L25.8103 70.1858C25.3727 69.9985 24.9999 70.0055 24.8461 70.3649C24.7325 70.6306 24.8041 70.9386 25.0432 71.3738C25.1013 71.4541 24.8648 71.5748 24.8156 71.5168C24.4268 70.8697 24.2901 69.9791 24.5709 69.3227C25.0122 68.2911 25.9477 68.5249 26.3853 68.7121L34.8253 72.323C35.7475 72.7175 36.4284 72.8979 36.7761 71.9557C36.8095 71.8775 37.0127 71.9645 37.0016 72.0337C36.8458 72.7436 36.5606 73.7126 36.3982 74.4381C36.3625 74.6078 36.3135 74.6793 36.1884 74.6258Z" fill="black"/>
<path d="M25.1889 80.1956C27.9074 80.7325 29.4968 83.1258 28.9665 85.8109C28.5449 87.9457 26.8566 88.7732 25.6558 88.5361C24.8219 88.3714 24.2501 87.6693 24.4839 86.4852L25.3996 81.8487L25.0827 81.7861C23.4149 81.4568 21.1427 82.0824 20.6782 84.4339C20.3884 85.9016 21.2445 87.0064 22.2403 87.9309C22.3138 87.9974 22.1341 88.1178 22.0873 88.0913C20.5074 86.8782 19.4808 85.5837 19.8497 83.7158C20.3536 81.1641 22.6539 79.6949 25.1889 80.1956ZM25.6498 81.8981L24.8889 85.7507C24.7242 86.5846 25.4292 87.2264 26.2798 87.3944C27.2638 87.5887 28.4397 87.1624 28.7295 85.6948C29.0358 84.1438 27.5651 82.5537 25.6498 81.8981Z" fill="black"/>
</svg>
