<svg width="35" height="35" viewBox="0 0 35 35" fill="none" xmlns="http://www.w3.org/2000/svg">
<path d="M29.7539 3.28125H21.3525C21.0913 3.28106 20.8406 3.38428 20.6553 3.56836L3.85938 20.3643C3.49161 20.7338 3.28516 21.234 3.28516 21.7554C3.28516 22.2768 3.49161 22.7769 3.85938 23.1465L11.8574 31.1445C12.227 31.5123 12.7272 31.7188 13.2485 31.7188C13.7699 31.7188 14.2701 31.5123 14.6397 31.1445L31.4287 14.3555C31.6128 14.1701 31.716 13.9194 31.7158 13.6582V5.25C31.7171 4.99168 31.6673 4.73567 31.5692 4.49668C31.4711 4.2577 31.3268 4.04047 31.1444 3.85749C30.9621 3.67451 30.7454 3.5294 30.5067 3.43051C30.2681 3.33161 30.0122 3.28089 29.7539 3.28125V3.28125Z" stroke="white" stroke-width="3" stroke-linecap="round" stroke-linejoin="round"/>
<path d="M26.25 10.9375C25.8174 10.9375 25.3944 10.8092 25.0347 10.5688C24.675 10.3285 24.3946 9.98683 24.229 9.58712C24.0634 9.18741 24.0201 8.74757 24.1045 8.32324C24.1889 7.89891 24.3973 7.50913 24.7032 7.20321C25.0091 6.89728 25.3989 6.68894 25.8232 6.60453C26.2476 6.52013 26.6874 6.56345 27.0871 6.72901C27.4868 6.89458 27.8285 7.17496 28.0688 7.53469C28.3092 7.89442 28.4375 8.31735 28.4375 8.75C28.4375 9.33016 28.207 9.88656 27.7968 10.2968C27.3866 10.707 26.8302 10.9375 26.25 10.9375Z" fill="white"/>
</svg>
