<svg width="170" height="156" viewBox="0 0 170 156" fill="none" xmlns="http://www.w3.org/2000/svg">
<path d="M75.1475 144.527L73.6749 144.172L72.2161 134.56L66.6908 142.484L66.3263 142.396L72.7544 133.163L73.4397 133.328L75.1475 144.527Z" fill="#513C25"/>
<path d="M51.4073 135.328C51.7659 135.546 51.8994 135.962 51.6808 136.32C51.4856 136.64 51.0577 136.766 50.6735 136.532C50.3148 136.313 50.1892 135.885 50.4 135.54C50.6107 135.194 51.023 135.094 51.4073 135.328ZM51.6552 133.336L55.215 127.495C55.4336 127.137 55.4744 126.81 55.1798 126.631C54.9621 126.498 54.6841 126.522 54.274 126.676C54.1965 126.716 54.1209 126.495 54.1777 126.459C54.7918 126.201 55.5868 126.194 56.1247 126.521C56.9701 127.037 56.6482 127.824 56.4296 128.183L53.8378 132.435C53.3773 133.191 53.134 133.763 53.9132 134.185C53.9772 134.224 53.8757 134.391 53.8167 134.372C53.2163 134.147 52.4059 133.776 51.7927 133.543C51.649 133.49 51.5928 133.438 51.6552 133.336Z" fill="#513C25"/>
<path d="M43.0965 122.061C41.2673 123.683 38.7375 123.521 37.1351 121.714C35.8611 120.278 36.1818 118.65 36.9898 117.933C37.5509 117.436 38.3494 117.409 39.0561 118.206L41.823 121.326L42.0362 121.137C43.1585 120.141 43.9329 118.211 42.5296 116.629C41.6537 115.642 40.4204 115.653 39.2393 115.858C39.1533 115.874 39.1648 115.684 39.2084 115.665C40.9043 115.203 42.3618 115.174 43.4765 116.431C44.9993 118.148 44.8023 120.548 43.0965 122.061ZM41.6547 121.475L39.3555 118.883C38.8579 118.322 38.0306 118.474 37.4583 118.982C36.7961 119.569 36.4674 120.622 37.3432 121.61C38.2689 122.653 40.1712 122.47 41.6547 121.475Z" fill="#513C25"/>
<path d="M23.4176 98.2736L23.2996 97.9654L31.449 97.1428L31.7922 98.0393L26.3818 101.989L33.047 101.317L33.3901 102.214L26.7743 107.043L26.2595 105.698L31.6559 101.753L25.0155 102.448L24.6669 101.538L30.058 97.5788L23.4176 98.2736Z" fill="#513C25"/>
<path d="M20.8564 69.197C20.4386 68.6782 20.212 67.9162 20.3785 67.3086C20.6401 66.3538 21.4859 66.4456 21.891 66.5566L22.4986 66.7231L22.1177 66.1833C21.4125 65.1812 21.2031 64.2995 21.3775 63.663C21.5956 62.8673 22.4275 62.4421 23.6495 62.637L23.2476 62.0603C22.5424 61.0582 22.333 60.1765 22.5074 59.54C22.7572 58.6286 23.7891 58.2115 25.2936 58.6238L29.6191 59.8092C30.0242 59.9202 30.3492 59.8693 30.4404 59.5366C30.5078 59.2906 30.4081 59.03 30.1467 58.6784C30.0863 58.6152 30.2785 58.4813 30.3285 58.5261C30.7462 59.0449 30.9729 59.8069 30.8064 60.4145C30.5447 61.3693 29.6989 61.2775 29.2938 61.1665L24.9249 59.9692C24.0135 59.7195 23.1516 59.8565 22.9851 60.4641C22.894 60.7969 23.0104 61.2798 23.4438 61.9119L23.9757 62.6953L29.6177 64.2414L29.249 65.5868L23.795 64.0922C22.8837 63.8425 22.0218 63.9795 21.8553 64.5871C21.7641 64.9199 21.8806 65.4028 22.314 66.0348L22.8458 66.8183L28.4878 68.3644L28.1191 69.7098L21.5657 67.9139C21.1606 67.8029 20.8356 67.8538 20.7445 68.1865C20.6771 68.4325 20.7767 68.6931 21.0381 69.0447C21.0985 69.1079 20.9063 69.2418 20.8564 69.197Z" fill="#513C25"/>
<path d="M39.2567 44.0593C37.7764 45.9484 35.4405 46.157 33.5396 44.6674C31.6387 43.1778 31.2709 40.8505 32.7512 38.9614C34.2408 37.0605 36.5978 36.8494 38.4987 38.339C40.3996 39.8286 40.7463 42.1584 39.2567 44.0593ZM39.056 43.902C40.083 42.5915 39.3856 40.8063 37.6264 39.4277C35.879 38.0584 33.9789 37.8081 32.9519 39.1187C31.9342 40.4174 32.6408 42.1908 34.4 43.5694C36.1592 44.9479 38.0383 45.2008 39.056 43.902Z" fill="#513C25"/>
<path d="M51.5943 31.6575L50.4397 32.4403L47.0053 27.3748C46.5086 26.6423 46.089 26.1837 45.3818 26.7176C45.3197 26.7597 45.2103 26.5983 45.2515 26.5522C45.7056 26.0994 46.3792 25.5158 46.8457 25.0545C46.953 24.9455 47.0235 24.9159 47.0909 25.0152L47.9916 26.3436L48.1035 25.7603C48.3354 24.552 48.2695 24.1074 48.9524 23.6444C49.2379 23.4508 49.7194 23.3056 50.0527 23.3695C50.6569 23.4855 50.6424 24.2927 50.2327 24.5705C50.1209 24.6462 49.9839 24.6847 49.8173 24.6528C49.4214 24.5768 49.0048 24.4969 48.7441 24.6736C48.6199 24.7578 48.5294 24.8916 48.4894 25.1L48.1852 26.6292L51.5943 31.6575Z" fill="#513C25"/>
<path d="M62.3218 21.1494C61.6332 18.8034 62.8576 16.5837 65.1749 15.9036C67.0172 15.3628 68.3532 16.3464 68.6574 17.3827C68.8686 18.1023 68.5525 18.836 67.5306 19.136L63.5294 20.3103L63.6096 20.5838C64.0321 22.0231 65.4482 23.5459 67.4776 22.9503C68.7442 22.5785 69.2595 21.458 69.5768 20.3019C69.5988 20.2173 69.7664 20.3088 69.7646 20.3562C69.4598 22.0871 68.8656 23.4183 67.2536 23.8914C65.0515 24.5378 62.9639 23.3371 62.3218 21.1494ZM63.466 20.0945L66.7907 19.1186C67.5104 18.9074 67.725 18.094 67.5096 17.36C67.2603 16.5108 66.4473 15.7646 65.1807 16.1363C63.8421 16.5292 63.1978 18.3285 63.466 20.0945Z" fill="#513C25"/>
<path d="M98.3454 11.586L99.7937 12.0307L100.665 21.7129L106.662 14.1396L107.021 14.2496L100.043 23.0753L99.369 22.8684L98.3454 11.586Z" fill="#513C25"/>
<path d="M121.481 22.2118C121.136 21.9718 121.028 21.5494 121.268 21.2047C121.483 20.8969 121.917 20.7975 122.287 21.0547C122.631 21.2946 122.731 21.7294 122.499 22.0618C122.268 22.3941 121.85 22.4689 121.481 22.2118ZM121.112 24.185L117.204 29.7984C116.964 30.1431 116.903 30.4664 117.186 30.6636C117.396 30.8093 117.675 30.8024 118.093 30.6736C118.173 30.6377 118.235 30.8637 118.176 30.8958C117.548 31.1161 116.754 31.0751 116.237 30.7151C115.424 30.1494 115.793 29.3829 116.033 29.0382L118.879 24.9513C119.385 24.225 119.662 23.6689 118.91 23.2001C118.849 23.1572 118.96 22.9972 119.018 23.0192C119.604 23.2807 120.39 23.7002 120.988 23.9703C121.128 24.0314 121.181 24.0865 121.112 24.185Z" fill="#513C25"/>
<path d="M128.966 35.9599C130.891 34.4518 133.406 34.7676 134.896 36.6685C136.08 38.1797 135.661 39.785 134.811 40.4511C134.22 40.9137 133.422 40.8916 132.765 40.0533L130.193 36.7711L129.968 36.9469C128.788 37.8721 127.897 39.7513 129.202 41.4161C130.016 42.4551 131.248 42.519 132.439 42.3858C132.526 42.3749 132.503 42.5645 132.458 42.5804C130.737 42.9379 129.281 42.8788 128.245 41.5564C126.829 39.75 127.172 37.3662 128.966 35.9599ZM130.37 36.6323L132.507 39.3596C132.97 39.95 133.805 39.8483 134.407 39.3764C135.103 38.8306 135.496 37.799 134.681 36.76C133.821 35.662 131.911 35.7295 130.37 36.6323Z" fill="#513C25"/>
<path d="M147.165 60.8998L147.264 61.2146L139.08 61.5401L138.792 60.6243L144.432 57.0105L137.739 57.276L137.451 56.3602L144.348 51.9424L144.78 53.316L139.154 56.9253L145.824 56.6357L146.116 57.5658L140.495 61.1894L147.165 60.8998Z" fill="#513C25"/>
<path d="M147.953 90.0787C148.338 90.622 148.518 91.3964 148.315 91.9927C147.996 92.9299 147.157 92.7868 146.759 92.6513L146.163 92.4482L146.51 93.0102C147.153 94.0533 147.309 94.9461 147.096 95.5708C146.83 96.3518 145.974 96.7256 144.766 96.4568L145.132 97.0569C145.775 98.0999 145.93 98.9927 145.717 99.6175C145.413 100.512 144.357 100.866 142.881 100.363L138.635 98.9163C138.238 98.7808 137.91 98.8119 137.799 99.1384C137.717 99.3798 137.8 99.646 138.04 100.013C138.096 100.08 137.896 100.202 137.849 100.154C137.464 99.6106 137.284 98.8362 137.487 98.2399C137.806 97.3028 138.645 97.4458 139.043 97.5813L143.331 99.042C144.225 99.3467 145.094 99.2623 145.297 98.666C145.408 98.3394 145.321 97.8503 144.927 97.1931L144.444 96.3787L138.906 94.4923L139.356 93.1719L144.709 94.9954C145.604 95.3001 146.472 95.2157 146.675 94.6194C146.787 94.2928 146.7 93.8036 146.306 93.1464L145.822 92.3321L140.285 90.4457L140.735 89.1252L147.167 91.3163C147.564 91.4518 147.892 91.4207 148.003 91.0942C148.085 90.8528 148.002 90.5866 147.762 90.2198C147.706 90.153 147.906 90.031 147.953 90.0787Z" fill="#513C25"/>
<path d="M128.058 114.05C129.65 112.255 131.995 112.189 133.801 113.791C135.608 115.394 135.834 117.739 134.241 119.535C132.639 121.341 130.273 121.409 128.467 119.806C126.66 118.204 126.455 115.857 128.058 114.05ZM128.249 114.22C127.144 115.465 127.731 117.29 129.403 118.773C131.064 120.246 132.946 120.611 134.05 119.365C135.145 118.131 134.548 116.318 132.876 114.835C131.204 113.352 129.343 112.985 128.249 114.22Z" fill="#513C25"/>
<path d="M114.989 125.679L116.189 124.968L119.309 130.233C119.76 130.994 120.151 131.477 120.89 130.988C120.954 130.949 121.054 131.117 121.01 131.161C120.529 131.585 119.821 132.126 119.327 132.559C119.214 132.661 119.141 132.686 119.08 132.583L118.262 131.202L118.115 131.778C117.81 132.97 117.849 133.417 117.139 133.838C116.842 134.014 116.353 134.13 116.024 134.045C115.428 133.893 115.491 133.088 115.917 132.836C116.033 132.767 116.172 132.737 116.337 132.779C116.727 132.879 117.138 132.984 117.409 132.823C117.538 132.747 117.637 132.619 117.689 132.413L118.086 130.905L114.989 125.679Z" fill="#513C25"/>
<path d="M103.641 135.516C104.185 137.899 102.828 140.04 100.474 140.578C98.6022 141.006 97.3284 139.943 97.0878 138.89C96.9207 138.159 97.2809 137.446 98.3192 137.208L102.384 136.28L102.321 136.002C101.987 134.539 100.666 132.933 98.604 133.404C97.3172 133.698 96.7347 134.786 96.3477 135.92C96.3205 136.003 96.1589 135.902 96.1635 135.855C96.573 134.145 97.247 132.853 98.8848 132.479C101.122 131.967 103.133 133.293 103.641 135.516ZM102.435 136.499L99.0566 137.271C98.3254 137.438 98.0617 138.237 98.2321 138.982C98.4293 139.845 99.1955 140.639 100.482 140.345C101.842 140.035 102.595 138.278 102.435 136.499Z" fill="#513C25"/>
</svg>
